<?xml version="1.0"?>
<svg xmlns="http://www.w3.org/2000/svg" xmlns:xlink="http://www.w3.org/1999/xlink" xmlns:svgjs="http://svgjs.com/svgjs" version="1.1" width="512" height="512" x="0" y="0" viewBox="0 0 512 512" style="enable-background:new 0 0 512 512" xml:space="preserve" class=""><g><g xmlns="http://www.w3.org/2000/svg"><g><g><path d="m390.312 158.985c-2.168 0-4.321-.679-6.162-2.017-3.257-2.366-4.858-6.302-4.177-10.27l3.904-22.761-16.537-16.12c-2.882-2.809-3.901-6.933-2.657-10.762s4.491-6.568 8.476-7.147l22.854-3.321 10.22-20.709c1.782-3.61 5.39-5.853 9.416-5.853 4.025 0 7.633 2.243 9.415 5.853l10.221 20.709 22.853 3.321c3.985.58 7.233 3.318 8.477 7.147s.225 7.953-2.658 10.763l-16.536 16.119 3.904 22.761c.681 3.968-.92 7.904-4.177 10.27-3.257 2.367-7.494 2.672-11.058.799l-20.44-10.746-20.441 10.747c-1.551.814-3.229 1.217-4.897 1.217zm-5.973-55.544 11.702 11.407c2.475 2.412 3.604 5.887 3.02 9.294l-2.762 16.105 14.463-7.604c3.061-1.608 6.713-1.608 9.772 0l14.464 7.604-2.762-16.105c-.584-3.407.544-6.882 3.021-9.295l11.701-11.406-16.171-2.35c-3.42-.497-6.375-2.644-7.905-5.743l-7.233-14.655-7.232 14.654c-1.53 3.1-4.485 5.247-7.905 5.744z" fill="#ffffff" data-original="#000000" style=""/></g><g><g><path d="m415.648 42.82c-4.142 0-7.5-3.358-7.5-7.5v-15.32c0-4.142 3.358-7.5 7.5-7.5s7.5 3.358 7.5 7.5v15.32c0 4.142-3.358 7.5-7.5 7.5z" fill="#ffffff" data-original="#000000" style=""/></g><g><path d="m467.644 64.357c-1.919 0-3.839-.732-5.303-2.197-2.929-2.929-2.929-7.678 0-10.606l10.833-10.833c2.929-2.929 7.678-2.929 10.606 0 2.929 2.929 2.929 7.678 0 10.606l-10.833 10.833c-1.465 1.465-3.384 2.197-5.303 2.197z" fill="#ffffff" data-original="#000000" style=""/></g><g><path d="m504.5 116.352h-15.319c-4.142 0-7.5-3.358-7.5-7.5s3.358-7.5 7.5-7.5h15.319c4.142 0 7.5 3.358 7.5 7.5s-3.358 7.5-7.5 7.5z" fill="#ffffff" data-original="#000000" style=""/></g><g><path d="m478.476 179.18c-1.919 0-3.839-.732-5.303-2.197l-10.833-10.833c-2.929-2.929-2.929-7.678 0-10.606 2.929-2.929 7.678-2.929 10.606 0l10.833 10.833c2.929 2.929 2.929 7.678 0 10.606-1.464 1.465-3.383 2.197-5.303 2.197z" fill="#ffffff" data-original="#000000" style=""/></g><g><path d="m415.648 205.204c-4.142 0-7.5-3.358-7.5-7.5v-15.319c0-4.142 3.358-7.5 7.5-7.5s7.5 3.358 7.5 7.5v15.319c0 4.142-3.358 7.5-7.5 7.5z" fill="#ffffff" data-original="#000000" style=""/></g><g><path d="m352.82 179.18c-1.919 0-3.839-.732-5.303-2.197-2.929-2.929-2.929-7.678 0-10.606l10.833-10.833c2.929-2.929 7.678-2.929 10.606 0 2.929 2.929 2.929 7.678 0 10.606l-10.833 10.833c-1.464 1.465-3.383 2.197-5.303 2.197z" fill="#ffffff" data-original="#000000" style=""/></g><g><path d="m342.116 116.352h-15.319c-4.142 0-7.5-3.358-7.5-7.5s3.358-7.5 7.5-7.5h15.319c4.142 0 7.5 3.358 7.5 7.5s-3.358 7.5-7.5 7.5z" fill="#ffffff" data-original="#000000" style=""/></g><g><path d="m363.653 64.357c-1.919 0-3.839-.732-5.303-2.197l-10.833-10.833c-2.929-2.929-2.929-7.678 0-10.606 2.929-2.929 7.678-2.929 10.606 0l10.833 10.833c2.929 2.929 2.929 7.678 0 10.606-1.464 1.465-3.384 2.197-5.303 2.197z" fill="#ffffff" data-original="#000000" style=""/></g></g></g><g><g><path d="m262.17 176.118c-7.078 0-14.156-2.694-19.545-8.083-2.929-2.929-2.929-7.678 0-10.606 2.929-2.929 7.678-2.929 10.606 0 4.929 4.929 12.949 4.93 17.877 0 2.929-2.929 7.678-2.929 10.606 0 2.929 2.929 2.929 7.678 0 10.606-5.387 5.388-12.465 8.083-19.544 8.083z" fill="#ffffff" data-original="#000000" style=""/></g></g><g><path d="m67.081 268.157c-4.21 0-7.906-2.688-9.199-6.689-4.564-14.135-8.602-18.172-22.736-22.736-4.001-1.292-6.69-4.989-6.69-9.199 0-4.209 2.688-7.906 6.689-9.198 14.135-4.564 18.172-8.602 22.736-22.736 1.292-4.001 4.989-6.69 9.199-6.69 4.209 0 7.906 2.688 9.198 6.69 4.564 14.134 8.602 18.171 22.736 22.736 4.001 1.292 6.69 4.989 6.69 9.198 0 4.21-2.688 7.907-6.69 9.199-14.134 4.564-18.171 8.602-22.736 22.736-1.291 4.001-4.988 6.689-9.197 6.689zm-15.02-38.624c6.733 3.664 11.356 8.287 15.02 15.02 3.664-6.733 8.287-11.356 15.02-15.02-6.733-3.664-11.356-8.286-15.02-15.02-3.664 6.734-8.287 11.356-15.02 15.02z" fill="#ffffff" data-original="#000000" style=""/></g><path d="m477.88 478.214-81.861-82.859c9.563-12.157 8.781-29.891-2.382-41.126l-21.806-21.946c3.594-5.704 8.527-8.513 17.936-11.551 4.001-1.292 6.689-4.989 6.689-9.199 0-4.209-2.688-7.906-6.69-9.198-14.134-4.564-18.171-8.602-22.736-22.736-1.292-4.001-4.989-6.69-9.199-6.69-4.209 0-7.906 2.688-9.198 6.69-3.014 9.333-5.8 14.263-11.413 17.85l-23.916-24.07c-6.078-6.118-14.51-9.626-23.133-9.626h-2.417c-2.161-4.157-6.371-6.729-11.079-6.729h-38.801v-6.693h32.955c17.981 0 32.611-14.629 32.611-32.611v-14.151h5.317c6.426 0 12.037-3.649 14.643-9.523s1.546-12.482-2.766-17.246l-16.536-18.269c-.424-.469-.658-1.075-.658-1.708v-40.564l16.513-34.614c1.742-3.653 1.493-7.878-.667-11.301s-5.866-5.467-9.913-5.467h-37.417c-4.142 0-7.5 3.358-7.5 7.5s3.358 7.5 7.5 7.5h32.22l-12.969 27.186h-48.902c-6.354 0-12.409 3.047-16.196 8.151l-21.534 29.031c-.959 1.292-1.477 2.859-1.477 4.468v20.368l-8.598-1.34v-5.206c0-5.14-3.051-9.796-7.774-11.862-3.288-1.438-6.784-2.167-10.393-2.167h-9.382c-2.833 0-5.56.463-8.114 1.305v-32.066c0-18.358 11.593-37.869 33.078-37.869h45.041c4.142 0 7.5-3.358 7.5-7.5s-3.358-7.5-7.5-7.5h-45.041c-13.738 0-26.219 5.757-35.145 16.211-8.34 9.767-12.933 22.786-12.933 36.658v44.922c-1.817 3.544-2.849 7.553-2.849 11.802v13.77c0 13.054 9.685 23.884 22.247 25.693v43.092h-38.801c-4.708 0-8.919 2.572-11.079 6.729h-2.299c-8.721 0-17.219 3.576-23.316 9.811l-78.922 80.71c-11.853 12.121-11.743 31.736.246 43.726l83.927 83.926v5.852c0 4.039 2.054 7.608 5.172 9.717 1.871 1.265 4.125 2.005 6.549 2.005h265.244c4.142 0 7.5-3.358 7.5-7.5s-3.358-7.5-7.5-7.5h-61.836v-.921l77.453-77.453 77.431 78.375h-58.047c-4.142 0-7.5 3.358-7.5 7.5s3.358 7.5 7.5 7.5h64.032c5.057 0 9.584-3.015 11.534-7.681 1.949-4.668.912-10.008-2.643-13.606zm-120.048-181.701c3.664 6.733 8.287 11.356 15.02 15.02-6.733 3.664-11.356 8.286-15.02 15.02-3.664-6.733-8.286-11.356-15.02-15.02 6.734-3.664 11.356-8.286 15.02-15.02zm-107.591-24.49h21.292l-21.292 27.123zm-94.252-83.785v-13.77c0-6.045 4.918-10.963 10.963-10.963l12.549.462v10.194c0 3.794 2.819 6.921 6.475 7.422l22.094 3.332c2.375 0 4.688-.843 6.52-2.412 2.229-1.909 3.508-4.687 3.508-7.622v-23.691l20.058-27.041c.97-1.308 2.521-2.088 4.148-2.088h46.134v34.761c0 4.36 1.611 8.541 4.537 11.773l16.536 18.269c.133.147.445.491.176 1.097s-.733.606-.932.606h-12.815c-4.142 0-7.5 3.358-7.5 7.5v12.441h-17.221c-.853 0-1.644-.423-2.117-1.133l-3.045-4.567c-2.298-3.446-6.953-4.377-10.401-2.08-3.446 2.298-4.377 6.955-2.08 10.401l3.044 4.566c3.261 4.892 8.718 7.813 14.598 7.813h16.223c-2.402 6.871-8.933 11.821-16.613 11.821h-35.433c-6.905 0-12.522 5.617-12.522 12.522v9.171h-44.638v-42.905c2.394-.174 4.741-.662 6.998-1.486 3.891-1.42 5.894-5.725 4.474-9.617-1.42-3.891-5.726-5.895-9.616-4.474-1.198.437-2.462.659-3.757.659h-9.382c-6.045.002-10.963-4.916-10.963-10.961zm51.99 90.221c-4.44-3.279-10.407-3.279-14.847 0l-27.263 20.123v-26.558h69.372v26.558zm7.116 23.896-14.539 14.539-14.54-14.539 14.54-10.732zm-32.171 18.121-1.941 17.03-15.82-20.151c.757-.317 1.491-.709 2.173-1.212l6.475-4.779zm44.376-9.113 6.475 4.779c.68.502 1.405.911 2.16 1.228l-15.807 20.135-1.941-17.03zm-76.431-39.34v27.123l-21.292-27.123zm-42.878 212.477v-89.5c0-4.142-3.358-7.5-7.5-7.5s-7.5 3.358-7.5 7.5v8 2.696l-27.698-27.698c-.992-.992-.992-2.606 0-3.598l27.698-27.698v13.298c0 4.142 3.358 7.5 7.5 7.5s7.5-3.358 7.5-7.5v-31.406c0-3.034-1.827-5.768-4.63-6.929-2.8-1.16-6.028-.519-8.173 1.626l-40.501 40.502c-6.841 6.84-6.841 17.971 0 24.811l38.305 38.305v33.804l-73.32-73.32c-6.206-6.206-6.263-16.358-.127-22.632l78.922-80.71c3.292-3.367 7.882-5.298 12.591-5.298h4.732l62.776 79.965-10.572 92.751c-.194 1.7.199 3.415 1.114 4.86l17.827 28.17zm75.204-33.958 13.393-117.5c1.241.516 2.583.786 3.967.786s2.726-.271 3.967-.786l13.393 117.5-17.36 27.433zm199.765-63.017-74.84 74.84v-33.805l39.956-39.956c3.314-3.313 5.139-7.719 5.139-12.405 0-4.687-1.825-9.093-5.139-12.406l-42.153-42.154c-2.145-2.145-5.372-2.786-8.173-1.626-2.803 1.161-4.63 3.896-4.63 6.929v157.558h-78.943l17.827-28.17c.915-1.446 1.308-3.161 1.114-4.86l-10.572-92.751 62.775-79.965h4.851c4.657 0 9.21 1.895 12.493 5.198l20.023 20.152c-2.16 1.795-3.479 4.486-3.479 7.43 0 4.21 2.688 7.907 6.69 9.199 14.134 4.564 18.171 8.602 22.736 22.736 1.292 4.001 4.989 6.689 9.198 6.689 2.877 0 5.513-1.257 7.307-3.329l17.858 17.973c6.233 6.274 6.216 16.468-.038 22.723zm-74.84 19.823v-62.298l29.35 29.35c.648.648.745 1.405.745 1.799 0 .393-.097 1.15-.745 1.798z" fill="#ffffff" data-original="#000000" style=""/></g></g></svg>
