<?xml version="1.0" encoding="UTF-8"?>
<svg width="148px" height="148px" viewBox="0 0 148 148" version="1.1" xmlns="http://www.w3.org/2000/svg" xmlns:xlink="http://www.w3.org/1999/xlink">
    <title>growth</title>
    <defs>
        <circle id="path-1" cx="74" cy="74" r="74"></circle>
    </defs>
    <g id="Page-1" stroke="none" stroke-width="1" fill="none" fill-rule="evenodd">
        <g id="Skyway-home" transform="translate(-519.000000, -3932.000000)">
            <g id="growth" transform="translate(519.000000, 3932.000000)">
                <mask id="mask-2" fill="white">
                    <use xlink:href="#path-1"></use>
                </mask>
                <use id="Mask" fill="#FFFFFF" xlink:href="#path-1"></use>
                <g mask="url(#mask-2)">
                    <g transform="translate(21.000000, 27.000000)">
                        <path d="M57.9998,17.3996 L57.9998,57.3996 C57.9998,59.0564 56.6566,60.3996 54.9998,60.3996 C53.343,60.3996 51.9998,59.0564 51.9998,57.3996 L51.9998,17.3996 L57.9998,17.3996 Z" id="Path" fill="#90E36A" fill-rule="nonzero"></path>
                        <path d="M54.9998,17.3996 L54.9998,60.3996 C56.6566,60.3996 57.9998,59.0564 57.9998,57.3996 L57.9998,17.3996 L54.9998,17.3996 Z" id="Path" fill="#00CB75" fill-rule="nonzero"></path>
                        <g id="Group" stroke-width="1" fill="none" fill-rule="evenodd" transform="translate(35.000000, 0.000000)">
                            <path d="M22.134,46.976 C21.7472,46.976 21.5074,46.9642 21.4534,46.9612 C20.69,46.9192 20.0804,46.3096 20.0384,45.5462 C20.0186,45.1906 19.6164,36.7766 24.7178,31.675 C28.4348,27.9584 33.908,27.1572 36.8396,27.0106 C37.6872,26.9684 38.5152,27.2874 39.1138,27.8858 C39.7124,28.4844 40.0314,29.3134 39.989,30.16 C39.8424,33.0916 39.0412,38.5648 35.3246,42.2816 L35.3246,42.2818 C30.9984,46.6078 24.2904,46.976 22.134,46.976 L22.134,46.976 Z" id="Path" fill="#00CB75" fill-rule="nonzero"></path>
                            <path d="M22.1336,19.9694 C21.7472,19.9694 21.5074,19.9576 21.4534,19.9546 C20.69,19.9126 20.0804,19.303 20.0384,18.5396 C20.0186,18.184 19.6164,9.77 24.7178,4.6684 C28.4346,0.9518 33.9078,0.1506 36.8396,0.004 C37.6876,-0.0386 38.5154,0.2806 39.114,0.8792 C39.7124,1.4776 40.0314,2.3066 39.989,3.1532 C39.8424,6.0848 39.0412,11.5582 35.3246,15.275 C35.3246,15.2752 35.3246,15.2752 35.3244,15.2752 C30.9982,19.601 24.2896,19.9694 22.1336,19.9694 Z" id="Path" fill="#00CB75" fill-rule="nonzero"></path>
                            <path d="M17.8658,46.9764 C15.71,46.9764 9.0016,46.6082 4.6754,42.282 C0.9584,38.565 0.1574,33.0918 0.0108,30.1602 C-0.0316,29.3136 0.2874,28.4844 0.886,27.886 C1.4846,27.2874 2.3132,26.9678 3.1602,27.0108 C6.0918,27.1574 11.565,27.9586 15.2818,31.6752 C20.3836,36.777 19.9812,45.1908 19.9614,45.5464 C19.9194,46.3098 19.3098,46.9194 18.5464,46.9614 C18.4924,46.9646 18.2522,46.9764 17.8658,46.9764 L17.8658,46.9764 Z" id="Path" fill="#90E36A" fill-rule="nonzero"></path>
                            <path d="M17.8662,19.9694 C15.7108,19.9694 9.002,19.6014 4.6754,15.275 C0.9584,11.558 0.1574,6.0846 0.0108,3.153 C-0.0316,2.3064 0.2874,1.4774 0.886,0.879 C1.4846,0.2804 2.3134,-0.0388 3.1602,0.0038 C6.092,0.1504 11.5652,0.9516 15.282,4.6682 C20.3836,9.77 19.9812,18.1838 19.9614,18.5394 C19.9194,19.3028 19.3098,19.9124 18.5464,19.9544 C18.4924,19.9576 18.2522,19.9694 17.8662,19.9694 Z" id="Path" fill="#90E36A" fill-rule="nonzero"></path>
                        </g>
                        <g id="Group" stroke-width="1" fill="none" fill-rule="evenodd" transform="translate(30.000000, 54.400000)">
                            <path d="M21.1996,35.9996 C20.3624,35.9996 19.5544,35.6488 18.9812,35.019 L0.9558,15.2156 C-0.07,14.0886 -0.088,12.3716 0.9142,11.2236 C7.2316,3.9858 15.7852,-0.0004 24.9998,-0.0004 C38.0406,-0.0004 46.1786,7.631 49.869,12.18 C50.3262,12.7438 50.5638,13.4544 50.5372,14.1798 L48.516,25.9484 C48.4636,27.377 47.4108,28.5698 46,28.7996 L21.682,35.9606 C21.521,35.9868 21.3598,35.9996 21.1996,35.9996 L21.1996,35.9996 Z" id="Path" fill="#FF9100" fill-rule="nonzero"></path>
                            <path d="M49.869,12.18 C46.1786,7.631 38.0406,-0.0004 24.9998,-0.0004 L24.9998,34.9834 L45.9998,28.7996 C47.4106,28.57 48.4634,27.377 48.5158,25.9484 L50.537,14.1798 C50.5636,13.4544 50.3262,12.744 49.869,12.18 L49.869,12.18 Z" id="Path" fill="#DD7D00" fill-rule="nonzero"></path>
                        </g>
                        <g id="Group" stroke-width="1" fill="none" fill-rule="evenodd" transform="translate(0.000000, 64.400000)">
                            <path d="M55.2766,15.1964 C56.8542,15.1964 58.4102,14.7794 59.7766,13.9906 L78.4466,3.2114 C81.7432,1.308 85.8774,2.072 88.2764,5.0274 C89.6994,6.7808 90.2802,9.0596 89.8698,11.28 C89.4596,13.5002 88.103,15.421 86.1476,16.55 L65.992,28.1868 C63.715,29.5016 61.1216,30.1966 58.4922,30.1966 L36.2264,30.1966 C34.8908,30.1966 33.635,30.7168 32.6906,31.661 L27.2304,37.121 C26.6536,37.698 25.8856,37.9998 25.1082,37.9998 C24.6258,37.9998 24.1398,37.8836 23.6934,37.6448 L1.5854,25.8118 C0.7482,25.3638 0.1726,24.5456 0.0334,23.6062 C-0.1056,22.667 0.2084,21.7172 0.8798,21.0456 L16.1636,5.7616 C19.752,2.1732 24.5232,0.1968 29.5986,0.1968 L49.4984,0.1968 C53.634,0.1968 56.9984,3.5612 56.9984,7.6968 C56.9984,11.8324 53.634,15.1968 49.4984,15.1968 L55.2766,15.1968 L55.2766,15.1964 Z" id="Path" fill="#FFDDCE" fill-rule="nonzero"></path>
                            <path d="M88.2762,5.0276 C85.8772,2.0722 81.743,1.3082 78.4464,3.2116 L59.7764,13.9908 C58.4102,14.7796 56.8542,15.1966 55.2764,15.1966 L49.4984,15.1966 C53.634,15.1966 56.9984,11.8322 56.9984,7.6966 C56.9984,3.561 53.634,0.1966 49.4984,0.1966 L44.9996,0.1966 L44.9996,30.1966 L58.492,30.1966 C61.1214,30.1966 63.7148,29.5016 65.9918,28.1868 L86.1472,16.55 C88.1026,15.421 89.4592,13.5002 89.8694,11.28 C90.28,9.0598 89.6992,6.7808 88.2762,5.0276 Z" id="Path" fill="#FFCBBC" fill-rule="nonzero"></path>
                            <path d="M55.2766,15.1964 L49.4986,15.1964 L37.8012,15.1964 C36.1444,15.1964 34.8012,16.5396 34.8012,18.1964 C34.8012,19.8532 36.1444,21.1964 37.8012,21.1964 L49.4986,21.1964 C55.1812,21.1964 60.0512,17.6656 62.0396,12.684 L59.7764,13.9906 C58.4102,14.7794 56.8542,15.1964 55.2766,15.1964 Z" id="Path" fill="#FFCBBC" fill-rule="nonzero"></path>
                            <path d="M59.7764,13.9906 C58.4102,14.7794 56.8542,15.1964 55.2764,15.1964 L49.4984,15.1964 L44.9996,15.1964 L44.9996,21.1964 L49.4984,21.1964 C55.181,21.1964 60.051,17.6656 62.0394,12.684 L59.7764,13.9906 Z" id="Path" fill="#FFBCA7" fill-rule="nonzero"></path>
                        </g>
                    </g>
                </g>
            </g>
        </g>
    </g>
</svg>