<?xml version="1.0" encoding="UTF-8"?>
<svg width="148px" height="148px" viewBox="0 0 148 148" version="1.1" xmlns="http://www.w3.org/2000/svg" xmlns:xlink="http://www.w3.org/1999/xlink">
    <title>handshake</title>
    <defs>
        <circle id="path-1" cx="74" cy="74" r="74"></circle>
    </defs>
    <g id="Page-1" stroke="none" stroke-width="1" fill="none" fill-rule="evenodd">
        <g id="Skyway-home" transform="translate(-793.000000, -3932.000000)">
            <g id="handshake" transform="translate(793.000000, 3932.000000)">
                <mask id="mask-2" fill="white">
                    <use xlink:href="#path-1"></use>
                </mask>
                <use id="Mask" fill="#FFFFFF" xlink:href="#path-1"></use>
                <g mask="url(#mask-2)">
                    <g transform="translate(23.000000, 32.000000)">
                        <path d="M8.0692369,48.9118796 L11.233494,52.0761368 L30.6949345,72.4339281 L46.2135863,84.6855196 L56.7794376,79.6024248 C63.9895175,86.2601401 73.8856469,76.3522289 67.2311658,69.1506966 L42.6196352,39.2728736 L8.04983136,9.96959312 C-2.68951461,20.7301928 -2.68327712,38.1593656 8.0692369,48.9118796 Z" id="Path" fill="#FFCFBC" fill-rule="nonzero"></path>
                        <path d="M50.3391104,13.257445 L47.0311599,9.94949453 C36.266402,-0.816649558 18.8032694,-0.808332901 8.04983136,9.96959312 L67.2309348,69.1506966 C74.4412458,75.8030984 84.336682,65.9136687 77.682663,58.6989683 C83.134463,64.0387244 91.9986337,58.7400896 90.0278169,51.4928156 L82.64147,21.7935698 L50.3391104,13.257445 Z" id="Path" fill="#FFB89B" fill-rule="nonzero"></path>
                        <path d="M55.2385458,8.35800972 C52.9022581,10.6942974 45.5501019,18.0464536 43.1010773,20.4954782 L47.5160673,24.9104682 C52.2886736,29.6860778 60.0287094,29.6754509 64.7969264,24.9104682 L72.5873242,32.7008661 L85.9085303,24.0811127 L95.417473,9.87071731 C86.1476342,-0.697675153 69.3091751,-4.64323606 55.2385458,8.35800972 Z" id="Path" fill="#FFA07A" fill-rule="nonzero"></path>
                        <path d="M72.5873242,32.7006351 L88.1341602,48.2474711 C89.0683981,49.1817089 89.6983849,50.3044577 90.0278169,51.4930467 L94.2006998,47.3201638 C106.012664,34.5298377 103.836703,19.4688331 95.417473,9.87048629 L72.5873242,32.7006351 Z" id="Path" fill="#FF8756" fill-rule="nonzero"></path>
                        <g id="Group" stroke-width="1" fill="none" fill-rule="evenodd" transform="translate(29.801356, 71.615661)">
                            <path d="M3.67295936,0.197982651 C3.56484281,0.294779303 3.45834339,0.394579193 3.35484721,0.498768429 C3.26290194,0.601340538 3.16841547,0.702526537 3.07000169,0.801171335 L3.67295936,0.197982651 Z" id="Path" fill="#FFD8C1" fill-rule="nonzero"></path>
                            <path d="M3.06977067,0.801171335 C3.16841547,0.702526537 3.26290194,0.601571556 3.35461619,0.498768429 C3.25758852,0.596489154 3.162409,0.696982098 3.06977067,0.801171335 Z" id="Path" fill="#FFD8C1" fill-rule="nonzero"></path>
                            <path d="M0.456954123,3.41398789 C0.358309325,3.51263268 0.263822856,3.61358766 0.172108606,3.71639079 C0.269136276,3.61867007 0.3643158,3.51817712 0.456954123,3.41398789 Z" id="Path" fill="#FFD8C1" fill-rule="nonzero"></path>
                        </g>
                        <path d="M32.8182234,74.8841078 C32.8182234,74.8841078 33.0589444,72.2121506 33.1559721,72.1144298 C35.7530794,69.2126094 35.6585929,64.7525709 32.8711266,61.9651045 C29.9850154,59.0789934 25.3055095,59.0789934 22.4193983,61.9651045 L23.4645249,60.9199779 C26.3506361,58.0338667 26.3506361,53.3545918 23.4645249,50.4684807 C20.5784138,47.5823695 15.8991389,47.5823695 13.0127967,50.4684807 L10.0516046,53.4296728 C7.16549345,56.3157839 7.16549345,60.9950588 10.0516046,63.881401 C12.9377158,66.7677432 17.6169907,66.7675122 20.5031018,63.881401 L19.4579752,64.9265276 C16.5718641,67.8126388 16.5718641,72.4921447 19.4579752,75.3782559 C22.3713465,78.3128808 27.1069899,78.2165462 29.9730024,75.3322832 C30.0651787,75.2294801 32.8182234,74.8841078 32.8182234,74.8841078 L32.8182234,74.8841078 Z" id="Path" fill="#FFB89B" fill-rule="nonzero"></path>
                        <path d="M46.4582347,79.7329501 L43.6712303,82.5199544 C46.5573415,79.6338433 46.5573415,74.9545684 43.6712303,72.0684572 C40.8632033,69.2398696 36.3625056,69.2280877 33.4743152,71.8136441 L32.8711266,72.4168327 L30.25831,75.0296493 C30.1656717,75.1338385 30.0704922,75.2343315 29.9734645,75.3320522 C27.3763572,78.2338726 27.4708436,82.6936802 30.25831,85.4813775 C33.1444212,88.3674887 37.8236961,88.3674887 40.7098072,85.4813775 L43.4968115,82.6943732 C40.6107004,85.5804844 40.6107004,90.2597593 43.4968115,93.1461015 C46.3829227,96.0322126 51.0621976,96.0322126 53.9485398,93.1461015 L56.9099629,90.1846783 C59.796074,87.2985672 59.796074,82.6192923 56.9099629,79.7329501 C54.0236207,76.846839 49.3443458,76.846839 46.4582347,79.7329501 L46.4582347,79.7329501 Z" id="Path" fill="#FFA07A" fill-rule="nonzero"></path>
                    </g>
                </g>
            </g>
        </g>
    </g>
</svg>