<?xml version="1.0" encoding="UTF-8"?>
<svg width="148px" height="148px" viewBox="0 0 148 148" version="1.1" xmlns="http://www.w3.org/2000/svg" xmlns:xlink="http://www.w3.org/1999/xlink">
    <title>mountain</title>
    <defs>
        <circle id="path-1" cx="74" cy="74" r="74"></circle>
    </defs>
    <g id="Page-1" stroke="none" stroke-width="1" fill="none" fill-rule="evenodd">
        <g id="Skyway-home" transform="translate(-1066.000000, -3932.000000)">
            <g id="mountain" transform="translate(1066.000000, 3932.000000)">
                <mask id="mask-2" fill="white">
                    <use xlink:href="#path-1"></use>
                </mask>
                <use id="Mask" fill="#FFFFFF" xlink:href="#path-1"></use>
                <g mask="url(#mask-2)" fill-rule="nonzero" id="Path">
                    <g transform="translate(4.000000, 25.000000)">
                        <path d="M59.1142857,35.7768262 L81.9604643,8.0763131 C83.5982371,6.09053566 86.0531959,4.95847229 88.6291373,5.00116561 C91.2050787,5.04385894 93.6210589,6.25665264 95.1919286,8.29560971 L131,54.7772544 L131,78 L57,78 L59.1142857,35.7768262 Z" fill="#5F8C66"></path>
                        <path d="M104,20.0690126 L99.4788823,24.6078742 C98.0090239,26.0833786 95.6821463,26.2493668 94.0192372,24.9973388 L88.563247,20.8893519 L82.8897899,25.1614066 C81.3234895,26.3406449 79.1515,26.2694974 77.665103,24.9902624 L72,20.1138298 L81.8917398,8.0551035 C83.5098783,6.08302967 85.935051,4.95880694 88.4797161,5.00115487 C91.0243812,5.04350281 93.4111053,6.24780442 94.963247,8.27263758 L104,20.0690126 Z" fill="#88C791"></path>
                        <path d="M47.9692885,30.1282716 L35.6666667,50.609639 L33.0989872,49.0708194 C31.0354708,47.8340988 28.5443314,47.5275429 26.2420131,48.2270103 C23.9396947,48.9264776 22.0413142,50.5666138 21.0166346,52.7415592 L3.6943934,86.6962363 L8,91 L91,91 L91,71.8677238 L62.3083365,29.7217107 C60.6752238,27.322838 57.9304464,25.9211225 55.0273722,26.0034346 C52.1242979,26.0857466 49.4635421,27.6407274 47.9692885,30.1282716 Z" fill="#6A9C72"></path>
                        <path d="M70,40.8021138 L63.6463397,46.0341949 C62.2125267,47.2149544 60.1636286,47.3230907 58.6107175,46.2999638 L54.9073569,43.8606687 L51.2039964,46.3004844 C49.6510853,47.3236113 47.6021872,47.215475 46.1683742,46.0347155 L41,41.7782483 L48.1248865,30.0438095 C49.6044001,27.6071517 52.2387972,26.0839957 55.1130979,26.0033646 C57.9873986,25.9227335 60.7049835,27.2957534 62.32198,29.6455466 L70,40.8021138 Z" fill="#88C791"></path>
                        <path d="M120.506756,23 C119.424848,23 118.515403,22.1596091 118.393688,21.0474477 C118.2419,19.6589355 118.034288,17.7572596 113.497134,16.3019206 C112.771363,16.0691647 112.220753,15.4535256 112.052712,14.6869084 C111.884672,13.9202913 112.12473,13.1191635 112.682459,12.5853021 C113.240189,12.0514408 114.030857,11.8659522 114.756627,12.098708 C117.54995,12.994407 119.345087,14.1791387 120.506756,15.4678232 C121.668425,14.1791387 123.463562,12.994407 126.256884,12.098433 C127.375645,11.7482042 128.557925,12.3977011 128.904062,13.552686 C129.250198,14.7076708 128.630433,15.9351626 127.516378,16.3010956 C122.978958,17.7567095 122.771612,19.6583855 122.619824,21.0474477 C122.498109,22.1596091 121.588664,23 120.506756,23 L120.506756,23 Z" fill="#6A7073"></path>
                        <path d="M60.4864521,13 C59.4054095,13 58.4966913,12.1599732 58.375074,11.0482936 C58.2234076,9.66038287 58.0159618,7.75953075 53.4824356,6.30454734 C52.3692718,5.93877291 51.7500017,4.71181291 52.0958617,3.5573284 C52.4417217,2.4028439 53.6230557,1.75362833 54.7409221,2.10370538 C57.5317447,2.99874146 59.3257121,4.18295997 60.4864521,5.47108622 C61.647192,4.18295997 63.4411595,2.99874146 66.2319821,2.1031556 C66.9588291,1.86432096 67.7536072,2.0468945 68.3145547,2.58155663 C68.8755022,3.11621876 69.1165896,3.92097125 68.9462808,4.69026533 C68.775972,5.45955941 68.2203862,6.07541262 67.4904686,6.30399756 C62.9566767,7.75898097 62.7494966,9.6598331 62.5978301,11.0482936 C62.4762128,12.1599732 61.5674947,13 60.4864521,13 L60.4864521,13 Z" fill="#6A7073"></path>
                        <path d="M8,94.0714286 C8,94.0714286 73.1724138,60.8571429 148,52 L148,114 L8,114 L8,94.0714286 Z" fill="#A0AB65"></path>
                        <path d="M112,93 C110.895431,93 110,92.0548234 110,90.8888889 L110,76.1111111 C110,74.9451766 110.895431,74 112,74 C113.104569,74 114,74.9451766 114,76.1111111 L114,90.8888889 C114,92.0548234 113.104569,93 112,93 Z" fill="#6A9C72"></path>
                        <polygon fill="#88C791" points="122 76 103 76 111.444444 48"></polygon>
                        <path d="M93,97 C91.8954305,97 91,96.059798 91,94.9 L91,78.1 C91,76.940202 91.8954305,76 93,76 C94.1045695,76 95,76.940202 95,78.1 L95,94.9 C95,96.059798 94.1045695,97 93,97 Z" fill="#6A9C72"></path>
                        <polygon fill="#88C791" points="103 80 82 80 92.5 44"></polygon>
                        <path d="M107,123 C88.787234,101.947368 52.3617021,83 25.0425532,83 C11.1945904,83 0,87.2105263 0,87.2105263 L0,123 L107,123 Z" fill="#B1BD70"></path>
                        <path d="M53,123 C53,123 67.7567568,89 131,89 L131,123 L53,123 Z" fill="#CFDB8C"></path>
                        <path d="M46,10.5 C45.9987345,12.5057563 45.031545,14.3912077 43.395106,15.5780133 C41.7586671,16.7648188 39.6483142,17.111314 37.7113744,16.5112152 C35.7232687,19.3240767 32.4699462,21 28.9976911,21 C25.525436,21 22.2721135,19.3240767 20.2840078,16.5112152 C17.6636912,17.3232973 14.8115217,16.3863156 13.2049379,14.1856314 C11.598354,11.9849473 11.598354,9.01505273 13.2049379,6.81436859 C14.8115217,4.61368445 17.6636912,3.67670271 20.2840078,4.48878477 C22.2721135,1.67592327 25.525436,0 28.9976911,0 C32.4699462,0 35.7232687,1.67592327 37.7113744,4.48878477 C39.6483142,3.88868604 41.7586671,4.2351812 43.395106,5.42198674 C45.031545,6.60879227 45.9987345,8.49424373 46,10.5 L46,10.5 Z" fill="#A3D4F7"></path>
                    </g>
                </g>
            </g>
        </g>
    </g>
</svg>