<?xml version="1.0" encoding="UTF-8"?>
<svg width="148px" height="148px" viewBox="0 0 148 148" version="1.1" xmlns="http://www.w3.org/2000/svg" xmlns:xlink="http://www.w3.org/1999/xlink">
    <title>positive</title>
    <defs>
        <circle id="path-1" cx="74" cy="74" r="74"></circle>
    </defs>
    <g id="Page-1" stroke="none" stroke-width="1" fill="none" fill-rule="evenodd">
        <g id="Skyway-home" transform="translate(-246.000000, -3932.000000)">
            <g id="positive" transform="translate(246.000000, 3932.000000)">
                <mask id="mask-2" fill="white">
                    <use xlink:href="#path-1"></use>
                </mask>
                <use id="Mask" fill="#FFFFFF" xlink:href="#path-1"></use>
                <g mask="url(#mask-2)" fill-rule="nonzero" id="Path">
                    <g transform="translate(43.000000, 27.000000)">
                        <path d="M71.4065626,48.6065626 L65.8490626,35.3025 C65.1768749,33.6946874 64.7981251,31.98375 64.6678126,30.2446874 C63.41625,13.5993749 49.5140626,0.48375 32.5481251,0.48375 C14.7590626,0.48375 0.3375,14.9053126 0.3375,32.6953126 C0.3375,32.8621874 0.34125,33.0290626 0.34406256,33.1959374 C0.34406256,33.5756251 0.35531256,33.9581251 0.37875,34.3425 C0.37875,34.3481251 0.37968744,34.35375 0.37968744,34.3593749 C0.38437488,34.4409374 0.38531256,34.5215626 0.39187488,34.6040626 L0.40968744,34.8281251 C0.43125,35.1628126 0.4575,35.4956251 0.48937488,35.8265626 L6.95156256,74.8640626 L6.95156256,98.29125 L39.4106251,98.29125 L39.4106251,81.0159374 C39.4106251,78.4809374 41.4656251,76.4259374 44.0006251,76.4259374 L52.185,76.4259374 C58.0171874,76.4259374 62.7440626,71.6981251 62.7440626,65.8668749 L62.7440626,54.0393749 L67.7878126,54.0393749 C70.5881251,54.0393749 72.4865626,51.1903126 71.4065626,48.6065626 L71.4065626,48.6065626 Z" fill="#FFDBA9"></path>
                        <path d="M67.7878126,54.0393749 L62.7440626,54.0393749 L62.7440626,65.8668749 C62.7440626,71.6971874 58.0153126,76.4259374 52.185,76.4259374 L44.0006251,76.4259374 C41.4656251,76.4259374 39.4106251,78.4809374 39.4106251,81.015 L39.4106251,98.29125 L32.0146874,98.29125 L32.0146874,0.48937488 C32.1928126,0.4875 32.3709374,0.48468744 32.55,0.48468744 C49.5140626,0.48468744 63.4171874,13.60125 64.6678126,30.24375 C64.7981251,31.9828126 65.1778126,33.69375 65.8490626,35.3034374 L71.4056251,48.6056251 C72.4856251,51.1903126 70.5890626,54.0393749 67.7878126,54.0393749 L67.7878126,54.0393749 Z" fill="#FFC473"></path>
                        <path d="M52.4943749,31.5196874 C52.4943749,42.8306251 43.3256251,51.9993749 32.0146874,51.9993749 C20.70375,51.9993749 11.535,42.8306251 11.535,31.5196874 C11.535,20.20875 20.70375,11.04 32.0146874,11.04 C43.3256251,11.04 52.4943749,20.20875 52.4943749,31.5196874 L52.4943749,31.5196874 Z" fill="#FFFFFF"></path>
                        <path d="M52.4953126,31.51875 C52.4953126,42.8306251 43.3246874,52.00125 32.01375,52.00125 L32.01375,11.04 C43.3246874,11.04 52.4953126,20.2106251 52.4953126,31.51875 L52.4953126,31.51875 Z" fill="#FFF5CB"></path>
                        <polygon fill="#00CEB4" points="31.3378126 41.2640626 19.9256251 31.2225 24.6825 25.8168749 30.8156251 31.2131251 39.8184374 21.4575 45.1096874 26.3409374"></polygon>
                        <polygon fill="#00AD95" points="39.8184374 21.4575 32.01375 29.9156251 32.01375 40.5318749 45.1096874 26.3409374"></polygon>
                    </g>
                </g>
            </g>
        </g>
    </g>
</svg>